<?xml version="1.0" encoding="UTF-8"?>
<!DOCTYPE svg PUBLIC "-//W3C//DTD SVG 1.1//EN" "http://www.w3.org/Graphics/SVG/1.1/DTD/svg11.dtd">
<!-- Creator: CorelDRAW -->
<svg xmlns="http://www.w3.org/2000/svg" xml:space="preserve" width="6.82666in" height="6.82666in" style="shape-rendering:geometricPrecision; text-rendering:geometricPrecision; image-rendering:optimizeQuality; fill-rule:evenodd; clip-rule:evenodd"
viewBox="0 0 6.82666 6.82666"
 xmlns:xlink="http://www.w3.org/1999/xlink"
 version="1.1">
 <defs>
  <style type="text/css">
   <![CDATA[
    .fil4 {fill:none}
    .fil3 {fill:#40A548}
    .fil2 {fill:#4FB44D}
    .fil1 {fill:#C5DC77}
    .fil0 {fill:#CEE18C}
   ]]>
  </style>
 </defs>
 <g id="Layer_x0020_1">
  <metadata id="CorelCorpID_0Corel-Layer"/>
  <g id="_573509336">
   <g id="Guides">
   </g>
   <g id="Layer_2">
   </g>
   <g id="Layer_3">
    <g>
     <g>
      <g>
       <rect id="_586959944" class="fil0" x="0.933331" y="3.23288" width="4.5539" height="2.1307"/>
       <rect id="_586958744" class="fil1" x="3.2103" y="3.23288" width="2.27696" height="2.1307"/>
       <rect id="_586954616" class="fil2" x="1.05203" y="3.35158" width="4.31646" height="1.89326"/>
       <rect id="_586953920" class="fil3" x="3.2103" y="3.35158" width="2.15823" height="1.89326"/>
       <g>
        <path id="_586954112" class="fil0" d="M3.2103 4.95065c-0.357701,0 -0.648701,-0.292665 -0.648701,-0.652433 0,-0.359768 0.291,-0.652433 0.648701,-0.652433 0.357701,0 0.648701,0.292665 0.648701,0.652433 -3.54331e-005,0.359768 -0.291035,0.652433 -0.648701,0.652433zm0 -1.20987c-0.305335,0 -0.553701,0.250067 -0.553701,0.557465 0,0.307366 0.248402,0.557465 0.553701,0.557465 0.305299,0 0.553732,-0.250067 0.553732,-0.557465 -3.54331e-005,-0.307398 -0.248433,-0.557465 -0.553732,-0.557465z"/>
       </g>
       <g>
        <g>
         <g>
          <rect id="_586953248" class="fil0" x="1.47146" y="4.00708" width="0.649299" height="0.0949685"/>
         </g>
         <g>
          <rect id="_586952768" class="fil0" x="1.47146" y="4.49438" width="0.649299" height="0.0949685"/>
         </g>
        </g>
        <g>
         <g>
          <rect id="_586951904" class="fil1" x="4.2998" y="4.00708" width="0.649299" height="0.0949685"/>
         </g>
         <g>
          <rect id="_586952168" class="fil1" x="4.2998" y="4.49438" width="0.649299" height="0.0949685"/>
         </g>
        </g>
       </g>
       <g>
        <path id="_586952384" class="fil0" d="M3.389 4.17525l-0.115402 0.0184331c-0.00579921,-0.0147677 -0.011,-0.0250315 -0.0156654,-0.0307323 -0.00466535,-0.00573228 -0.0123661,-0.0115 -0.0230984,-0.0173346l0 0.0902992c0.0628661,0.0168661 0.104866,0.0347008 0.125969,0.0534331 0.0279331,0.0252008 0.0418661,0.0571654 0.0418661,0.0959016 0,0.0227008 -0.005,0.0435315 -0.0150315,0.0624685 -0.0100315,0.0189685 -0.0228661,0.0347677 -0.0384685,0.0475 -0.0156339,0.0127008 -0.0322008,0.0219331 -0.0497992,0.0276339 -0.0175669,0.00573228 -0.0390984,0.00909843 -0.0645315,0.0101339l0 0.059 -0.0453031 -3.93701e-006 0 -0.059c-0.0304016,-0.00270079 -0.0550669,-0.00763386 -0.074,-0.0148346 -0.0189331,-0.00716535 -0.0352677,-0.0170984 -0.0490315,-0.0297992 -0.0137677,-0.0127008 -0.0243661,-0.0263661 -0.0317992,-0.0410669 -0.00743307,-0.0146654 -0.0130315,-0.0324016 -0.0167677,-0.0532323l0.125335 -0.0146654c0.00373228,0.0205984 0.00873228,0.0355 0.0150315,0.0446339 0.00629921,0.00916535 0.0167008,0.0172677 0.0311654,0.0243346l0 -0.110299c-0.0417677,-0.0116654 -0.0714016,-0.0217677 -0.0888661,-0.0302992 -0.0174685,-0.0085315 -0.0326339,-0.0222323 -0.0454331,-0.0410669 -0.0128346,-0.0188346 -0.0192323,-0.0417992 -0.0192323,-0.0688661 0,-0.0370669 0.0128661,-0.0680315 0.0386339,-0.0929331 0.0257677,-0.0249016 0.0640669,-0.0386654 0.114933,-0.0414016l0 -0.0590315 0.0452992 -3.93701e-006 0 0.0590315c0.0463346,0.00290157 0.0817323,0.0139331 0.106268,0.0330984 0.0244961,0.0191693 0.0404646,0.0453661 0.0479291,0.0786693zm-0.1995 -0.0312008c-0.0132323,0.00440157 -0.0224331,0.00983465 -0.0275984,0.0163346 -0.00516535,0.0064685 -0.00776772,0.0140984 -0.00776772,0.0229016 0,0.00920079 0.00263386,0.0172008 0.00786614,0.024 0.00523228,0.00679921 0.0144016,0.0125 0.0275,0.0170669l0 -0.0803031zm0.0453031 0.3075c0.0175669,-0.0039685 0.0304685,-0.0105 0.0386339,-0.0195669 0.00816535,-0.00906693 0.0122677,-0.0192677 0.0122677,-0.0305315 0,-0.00979921 -0.0034685,-0.0188346 -0.0103661,-0.0270984 -0.00690157,-0.00823228 -0.0204016,-0.0159016 -0.0405,-0.023l-3.93701e-006 0.100197 -3.14961e-005 0z"/>
       </g>
       <path id="_586951280" class="fil1" d="M3.2103 3.64581l0 0.0949685c0.305335,0 0.553732,0.250067 0.553732,0.557465 0,0.307366 -0.248402,0.557465 -0.553732,0.557465l0 0.0949685c0.357701,0 0.648701,-0.292665 0.648701,-0.652433 -3.54331e-005,-0.359768 -0.291035,-0.652433 -0.648701,-0.652433z"/>
       <g>
        <path id="_586951808" class="fil1" d="M3.36076 4.28935c-0.0210984,-0.0187323 -0.0630669,-0.0365315 -0.125969,-0.0534331l0 -0.0902992c0.0107677,0.00583465 0.0184685,0.0115984 0.0230984,0.0173346 0.00466535,0.00573228 0.00986614,0.0159685 0.0156654,0.0307323l0.115402 -0.0184331c-0.00743307,-0.0332992 -0.0234331,-0.0595315 -0.0479331,-0.0786654 -0.0245,-0.0191339 -0.0599331,-0.0301654 -0.106268,-0.0330984l0 -0.0590315 -0.0244961 -3.93701e-006 0 0.587567 0.0245 -3.93701e-006 0 -0.059c0.0254331,-0.0010315 0.0469331,-0.00443307 0.0645315,-0.0101654 0.0175669,-0.00573228 0.0341654,-0.0149331 0.0497992,-0.0276339 0.0155984,-0.0127008 0.0284331,-0.0285315 0.0384685,-0.0475 0.0100315,-0.0189685 0.0150315,-0.0397992 0.0150315,-0.0625 3.54331e-005,-0.0387008 -0.0139291,-0.0706654 -0.0418307,-0.0958661zm-0.0873346 0.142598c-0.00816535,0.00906693 -0.0210315,0.0155984 -0.0386339,0.0195669l0 -0.100165c0.0200984,0.00706693 0.0335984,0.0147323 0.0405,0.023 0.00690157,0.00823228 0.0103661,0.0172677 0.0103661,0.0270984 3.93701e-006,0.0112677 -0.00406299,0.0214331 -0.0122323,0.0305z"/>
       </g>
      </g>
      <g>
       <rect id="_586950776" class="fil0" x="1.33943" y="3.63898" width="4.5539" height="2.1307"/>
       <rect id="_586950968" class="fil1" x="3.61637" y="3.63898" width="2.27696" height="2.1307"/>
       <rect id="_586950728" class="fil2" x="1.45813" y="3.75768" width="4.31646" height="1.89326"/>
       <rect id="_586950104" class="fil3" x="3.61637" y="3.75768" width="2.15823" height="1.89326"/>
       <g>
        <path id="_586949936" class="fil0" d="M3.61636 5.35674c-0.357701,0 -0.648701,-0.292665 -0.648701,-0.652433 0,-0.359768 0.291,-0.652433 0.648701,-0.652433 0.357701,0 0.648701,0.292665 0.648701,0.652433 0,0.359768 -0.291,0.652433 -0.648701,0.652433zm0 -1.20986c-0.305335,0 -0.553732,0.250067 -0.553732,0.557465 0,0.307366 0.248402,0.557465 0.553732,0.557465 0.305335,0 0.553701,-0.250067 0.553701,-0.557465 3.54331e-005,-0.307402 -0.248366,-0.557465 -0.553701,-0.557465z"/>
       </g>
       <g>
        <g>
         <g>
          <rect id="_586950344" class="fil0" x="1.87757" y="4.41318" width="0.649299" height="0.0949685"/>
         </g>
         <g>
          <rect id="_586949048" class="fil0" x="1.87757" y="4.90048" width="0.649299" height="0.0949685"/>
         </g>
        </g>
        <g>
         <g>
          <rect id="_586949432" class="fil1" x="4.7059" y="4.41318" width="0.649299" height="0.0949685"/>
         </g>
         <g>
          <rect id="_586980704" class="fil1" x="4.7059" y="4.90048" width="0.649299" height="0.0949685"/>
         </g>
        </g>
       </g>
       <g>
        <path id="_586980656" class="fil0" d="M3.79506 4.58135l-0.115402 0.0184331c-0.00579921,-0.0147677 -0.011,-0.0250315 -0.0156654,-0.0307323 -0.00466535,-0.00573228 -0.0123661,-0.0115 -0.0230984,-0.0173346l0 0.0902992c0.0628661,0.0168661 0.104866,0.0347008 0.125969,0.0534331 0.0279331,0.0252008 0.0418661,0.0571654 0.0418661,0.0959016 0,0.0227008 -0.005,0.0435315 -0.0150315,0.0624685 -0.0100315,0.0189685 -0.0228661,0.0347677 -0.0384685,0.0475 -0.0156339,0.0127008 -0.0322008,0.0219331 -0.0497992,0.0276339 -0.0175669,0.00573228 -0.0390984,0.00909843 -0.0645315,0.0101339l0 0.059 -0.0453031 -3.93701e-006 0 -0.059c-0.0304016,-0.00270079 -0.0550669,-0.00763386 -0.074,-0.0148346 -0.0189331,-0.00716535 -0.0352677,-0.0170984 -0.0490315,-0.0297992 -0.0137677,-0.0127008 -0.0243661,-0.0263661 -0.0317992,-0.0410669 -0.00743307,-0.0146654 -0.0130315,-0.0324016 -0.0167677,-0.0532323l0.125335 -0.0146654c0.00373228,0.0205984 0.00873228,0.0355 0.0150315,0.0446339 0.00629921,0.00916535 0.0167008,0.0172677 0.0311654,0.0243346l0 -0.110299c-0.0417677,-0.0116654 -0.0714016,-0.0217677 -0.0888661,-0.0302992 -0.0174685,-0.0085315 -0.0326339,-0.0222323 -0.0454331,-0.0410669 -0.0128346,-0.0188346 -0.0192323,-0.0417992 -0.0192323,-0.0688661 0,-0.0370669 0.0128661,-0.0680315 0.0386339,-0.0929331 0.0257677,-0.0249016 0.0640669,-0.0386654 0.114933,-0.0414016l0 -0.0590315 0.0452953 -3.93701e-006 0 0.0590315c0.0463346,0.00290157 0.0817323,0.0139331 0.106268,0.0330984 0.0245354,0.0191693 0.0405,0.0453701 0.0479331,0.0786693zm-0.199465 -0.0312008c-0.0132323,0.00440157 -0.0224331,0.00983465 -0.0275984,0.0163346 -0.00516535,0.0064685 -0.00776772,0.0140984 -0.00776772,0.0229016 0,0.00920079 0.00263386,0.0172008 0.00786614,0.024 0.00523228,0.00679921 0.0144016,0.0125 0.0275,0.0170669l0 -0.0803031zm0.0452992 0.307469c0.0175669,-0.0039685 0.0304685,-0.0105 0.0386339,-0.0195669 0.00816535,-0.00906693 0.0122677,-0.0192677 0.0122677,-0.0305315 0,-0.00979921 -0.0034685,-0.0188346 -0.0103661,-0.0270984 -0.00690157,-0.00823228 -0.0204016,-0.0159016 -0.0405,-0.023l-3.93701e-006 0.100197 -3.14961e-005 0z"/>
       </g>
       <path id="_586980584" class="fil1" d="M3.61636 4.05188l0 0.0949685c0.305335,0 0.553701,0.250067 0.553701,0.557465 0,0.307366 -0.248402,0.557465 -0.553701,0.557465l0 0.0949685c0.357701,0 0.648701,-0.292665 0.648701,-0.652433 0,-0.359736 -0.291,-0.652433 -0.648701,-0.652433z"/>
       <g>
        <path id="_586980248" class="fil1" d="M3.76683 4.69544c-0.0210984,-0.0187323 -0.0630669,-0.0365315 -0.125969,-0.0534331l0 -0.0902992c0.0107677,0.00583465 0.0184685,0.0115984 0.0230984,0.0173346 0.00466535,0.00573228 0.00986614,0.0159685 0.0156654,0.0307323l0.115402 -0.0184331c-0.00743307,-0.0332992 -0.0234331,-0.0595315 -0.0479331,-0.0786654 -0.0245,-0.0191339 -0.0599331,-0.0301654 -0.106268,-0.0330984l0 -0.0590315 -0.0244961 -3.93701e-006 0 0.587567 0.0245 0 0 -0.059c0.0254331,-0.0010315 0.0469331,-0.00443307 0.0645315,-0.0101654 0.0175669,-0.00573228 0.0341654,-0.0149331 0.0497992,-0.0276339 0.0155984,-0.0127008 0.0284331,-0.0285315 0.0384685,-0.0475 0.0100315,-0.0189685 0.0150315,-0.0397992 0.0150315,-0.0625 7.08661e-005,-0.0387008 -0.0138976,-0.0706693 -0.0418307,-0.0958701zm-0.0873346 0.142602c-0.00816535,0.00906693 -0.0210315,0.0155984 -0.0386339,0.0195669l0 -0.100165c0.0200984,0.00706693 0.0335984,0.0147323 0.0405,0.023 0.00690157,0.00823228 0.0103661,0.0172677 0.0103661,0.0270984 3.54331e-005,0.0112323 -0.00406299,0.0214331 -0.0122323,0.0305z"/>
       </g>
      </g>
     </g>
     <g>
      <rect id="_586979768" class="fil1" x="3.23167" y="1.52019" width="0.363366" height="1.40023"/>
      <polygon id="_586979696" class="fil1" points="2.83126,1.81815 3.41333,1.05698 3.9954,1.81815 "/>
     </g>
    </g>
   </g>
   <g id="Layer_4">
   </g>
   <g id="Layer_5">
   </g>
   <g id="Layer_6">
   </g>
   <g id="Layer_7">
   </g>
   <g id="Layer_8">
   </g>
   <g id="Layer_9">
   </g>
   <g id="Layer_10">
   </g>
   <g id="Layer_11">
   </g>
   <g id="Layer_12">
   </g>
   <g id="Layer_13">
   </g>
   <g id="Layer_14">
   </g>
   <g id="Layer_15">
   </g>
   <g id="Layer_16">
   </g>
   <g id="Layer_17">
   </g>
   <g id="Layer_18">
   </g>
   <g id="Layer_19">
   </g>
   <g id="Layer_20">
   </g>
   <g id="Layer_21">
   </g>
   <g id="Layer_22">
   </g>
   <g id="Layer_23">
   </g>
   <g id="Layer_24">
   </g>
   <g id="Layer_25">
   </g>
   <g id="Layer_26">
   </g>
  </g>
 </g>
 <rect class="fil4" width="6.82666" height="6.82666"/>
</svg>
